<svg width="66" height="32" viewBox="0 0 66 32" fill="none" xmlns="http://www.w3.org/2000/svg">
<g clip-path="url(#clip0_1187_9073)">
<path d="M18.6152 20.1363L16.7704 16.1489H6.60471L4.75989 20.1363H0.678101L10.0196 0H13.3559L22.6975 20.1363H18.6152ZM11.7072 5.10373L8.25296 12.5604H15.1216L11.7072 5.10373Z" fill="#0473B8"/>
<path d="M39.8492 20.1363L28.0742 5.94145V20.1368H24.3059V0H27.8776L39.6527 14.2353V0H43.4209V20.1363H39.8492Z" fill="#0473B8"/>
<path d="M64.8118 16.109C64.4716 16.9063 64.0071 17.6044 63.4184 18.2025C62.8296 18.8006 62.1429 19.273 61.3576 19.6181C60.5728 19.9638 59.735 20.1363 58.8454 20.1363H52.8013C51.9117 20.1363 51.0745 19.9638 50.2892 19.6181C49.5044 19.273 48.8171 18.8006 48.2284 18.2025C47.6396 17.6044 47.1747 16.9067 46.8349 16.109C46.4947 15.3117 46.3248 14.4611 46.3248 13.5569V6.57948C46.3248 5.67618 46.4947 4.82515 46.8349 4.02737C47.1747 3.23008 47.6396 2.5319 48.2284 1.93381C48.8171 1.33572 49.5039 0.863852 50.2892 0.518213C51.074 0.173066 51.9112 0 52.8013 0H58.8459C59.735 0 60.5728 0.173066 61.3581 0.518213C62.1429 0.863852 62.8301 1.33572 63.4189 1.93381C64.0076 2.5319 64.4721 3.22958 64.8123 4.02737C65.152 4.82465 65.3224 5.67569 65.3224 6.57948V7.4167H61.5541V6.57948C61.5541 5.80881 61.2921 5.15797 60.7693 4.62545C60.2456 4.09393 59.6045 3.82817 58.8459 3.82817H52.8013C52.0423 3.82817 51.4011 4.09442 50.8779 4.62545C50.3542 5.15747 50.0931 5.80881 50.0931 6.57948V13.5574C50.0931 14.3285 50.3542 14.9798 50.8779 15.5114C51.4011 16.0434 52.0418 16.3087 52.8013 16.3087H58.8459C59.6045 16.3087 60.2452 16.0434 60.7693 15.5114C61.2925 14.9798 61.5541 14.329 61.5541 13.5574V12.5604H65.3224V13.5574C65.3224 14.4611 65.152 15.3117 64.8118 16.109Z" fill="#0473B8"/>
<path d="M0.5 31.9651V23.2354H2.13369V31.9651H0.5Z" fill="#0473B8"/>
<path d="M9.0422 31.9655V27.9549C9.0422 27.8169 9.01939 27.667 8.97425 27.5053C8.92863 27.344 8.84903 27.1941 8.73595 27.0556C8.62238 26.917 8.4724 26.7992 8.28506 26.7011C8.09771 26.6034 7.86232 26.5541 7.57887 26.5541H7.10226L5.16232 28.2311V31.965H3.57959V25.0508H5.16232V26.2263L6.48975 25.0508H7.57887C8.1346 25.0508 8.6083 25.1489 8.99949 25.3446C9.39068 25.5409 9.70568 25.7854 9.94398 26.0793C10.1823 26.3732 10.3551 26.6873 10.4628 27.0216C10.5706 27.3559 10.6244 27.667 10.6244 27.9549V31.9655H9.0422Z" fill="#0473B8"/>
<path d="M19.2176 29.6833C19.2176 30.133 19.1268 30.5043 18.9453 30.7982C18.7638 31.092 18.5085 31.3282 18.1794 31.5067C17.8503 31.6857 17.4586 31.8124 17.0053 31.8869C16.5515 31.9618 16.0526 31.9993 15.508 31.9993C15.1338 31.9993 14.7222 31.9791 14.2743 31.9386C13.8258 31.8982 13.4118 31.7917 13.0323 31.6186C12.6522 31.4456 12.3319 31.1897 12.0708 30.8494C11.8097 30.5097 11.6738 30.0457 11.6626 29.458H13.2963C13.2963 29.6311 13.3133 29.7839 13.3472 29.9161C13.3812 30.0487 13.4691 30.1611 13.6108 30.2533C13.7525 30.3455 13.9709 30.415 14.266 30.4609C14.5611 30.5073 14.9746 30.5299 15.508 30.5299C15.9507 30.5299 16.3079 30.5127 16.5802 30.4782C16.8524 30.4436 17.065 30.3889 17.2184 30.314C17.3718 30.239 17.4761 30.1498 17.5334 30.0462C17.5902 29.9427 17.6183 29.8214 17.6183 29.6833C17.6183 29.5103 17.5674 29.3722 17.465 29.2687C17.363 29.1651 17.164 29.1074 16.8694 29.0956L13.7724 28.9398C13.5341 28.9285 13.2958 28.8851 13.058 28.8101C12.8197 28.7352 12.6042 28.6257 12.4115 28.4817C12.2183 28.3378 12.0625 28.1563 11.9436 27.9374C11.8247 27.7185 11.765 27.4591 11.765 27.1593C11.765 26.7447 11.8529 26.3961 12.0286 26.1135C12.2042 25.8315 12.4508 25.6037 12.7687 25.4306C13.0861 25.2576 13.4662 25.1309 13.9088 25.0505C14.3514 24.9701 14.8387 24.9297 15.3721 24.9297C15.7575 24.9297 16.1603 24.9499 16.5802 24.9903C16.9995 25.0308 17.3912 25.1314 17.7542 25.2931C18.1173 25.4548 18.4235 25.6934 18.673 26.0105C18.9225 26.3275 19.0642 26.757 19.0986 27.2984H17.4819C17.4703 27.1603 17.4451 27.0366 17.4053 26.9266C17.3655 26.8171 17.2776 26.722 17.1417 26.6416C17.0058 26.5612 16.7986 26.5006 16.5205 26.4602C16.2424 26.4197 15.8594 26.3995 15.3716 26.3995C14.9402 26.3995 14.5946 26.4197 14.3335 26.4602C14.0724 26.5006 13.868 26.5553 13.721 26.6244C13.5734 26.6934 13.4768 26.7742 13.4317 26.8665C13.3861 26.9587 13.3637 27.0568 13.3637 27.1603C13.3637 27.2984 13.4346 27.3881 13.5763 27.4281C13.7181 27.4685 13.9534 27.5 14.2825 27.5232L16.835 27.679C17.164 27.7022 17.4732 27.7481 17.7625 27.8171C18.0517 27.8861 18.3041 27.9961 18.5196 28.1455C18.7351 28.2954 18.905 28.4941 19.0302 28.7421C19.1549 28.9891 19.2176 29.3032 19.2176 29.6833Z" fill="#0473B8"/>
<path d="M25.6494 31.9655V30.7901L24.322 31.9655H23.2328C22.6655 31.9655 22.1888 31.8679 21.8035 31.6717C21.4176 31.4759 21.106 31.2309 20.8677 30.937C20.6294 30.6431 20.4566 30.3291 20.3489 29.9948C20.2411 29.6605 20.1873 29.3493 20.1873 29.0614V25.0508H21.77V29.0614C21.77 29.1881 21.7928 29.3321 21.8379 29.4938C21.8831 29.6555 21.9627 29.8079 22.0762 29.9519C22.1893 30.0963 22.3398 30.2171 22.5271 30.3148C22.7145 30.4129 22.9494 30.4617 23.2333 30.4617H23.7099L25.6499 28.7848V25.0508H27.2326V31.9655H25.6494Z" fill="#0473B8"/>
<path d="M32.8131 27.9549C32.8015 27.3904 32.7165 27.0156 32.5578 26.8312C32.3986 26.6468 32.155 26.5546 31.8259 26.5546L30.1922 28.1275V31.965H28.6095V25.0508H30.1922V26.0359L31.2134 25.0508H31.8429C32.6369 25.0508 33.2577 25.2899 33.7062 25.7682C34.1541 26.2465 34.3837 26.9757 34.3954 27.9549H32.8131Z" fill="#0473B8"/>
<path d="M38.9387 24.895V31.9651H37.305V24.895H34.4124V23.2354H41.8314V24.895H38.9387Z" fill="#0473B8"/>
<path d="M49.3864 28.9922H43.9412C43.9524 29.3033 43.9781 29.5602 44.0179 29.7614C44.0577 29.9631 44.1456 30.1243 44.2815 30.2456C44.4174 30.3664 44.6105 30.4502 44.86 30.4961C45.1095 30.5424 45.4444 30.5651 45.8642 30.5651C46.0229 30.5651 46.2044 30.574 46.4088 30.5912C46.6131 30.6085 46.8111 30.606 47.0043 30.5823C47.1858 30.5592 47.3533 30.5044 47.5061 30.4182C47.659 30.3319 47.7585 30.1849 47.8041 29.9774C47.8721 29.9774 47.9915 29.9803 48.1614 29.9862C48.3317 29.9921 48.5074 29.9951 48.6889 29.9951H49.3524C49.3068 30.3984 49.202 30.7298 49.0374 30.9891C48.8729 31.2485 48.6462 31.4531 48.357 31.603C48.0677 31.7529 47.7158 31.8564 47.3018 31.9141C46.8873 31.9718 46.4083 32.0004 45.8642 32.0004C45.1041 32.0004 44.4945 31.92 44.0349 31.7583C43.5753 31.5971 43.221 31.3639 42.9715 31.0582C42.7221 30.7529 42.557 30.3812 42.4779 29.9433C42.3983 29.5055 42.359 29.004 42.359 28.4395C42.359 27.8863 42.4017 27.3966 42.4867 26.9701C42.5716 26.5441 42.739 26.1807 42.9885 25.881C43.238 25.5817 43.5928 25.3539 44.0519 25.1981C44.5115 25.0423 45.1153 24.9648 45.8642 24.9648C46.6131 24.9648 47.2198 25.0314 47.6848 25.1635C48.1497 25.2962 48.5069 25.4978 48.7569 25.7685C49.0064 26.0392 49.1738 26.3735 49.2587 26.7709C49.3437 27.1684 49.3864 27.6328 49.3864 28.1624V28.9922ZM47.7867 27.5574C47.7867 27.3385 47.7668 27.1511 47.727 26.9958C47.6872 26.84 47.5993 26.7192 47.4634 26.6329C47.3275 26.5466 47.1315 26.4835 46.8762 26.4426C46.6209 26.4021 46.2831 26.3819 45.8637 26.3819C45.4779 26.3819 45.1663 26.4021 44.928 26.4426C44.6897 26.483 44.5052 26.5461 44.3752 26.6329C44.2446 26.7192 44.1509 26.8405 44.0941 26.9958C44.0373 27.1516 43.9975 27.339 43.9752 27.5574H47.7867Z" fill="#0473B8"/>
<path d="M57.035 30.8511C56.8365 31.1794 56.5783 31.4275 56.2609 31.5946C55.943 31.7618 55.5916 31.8683 55.2057 31.9146C54.8199 31.961 54.434 31.9836 54.0486 31.9836H53.7594C52.9993 31.9836 52.3951 31.9116 51.9471 31.7677C51.4986 31.6237 51.156 31.4107 50.9177 31.1282C50.6793 30.8461 50.5235 30.4916 50.4498 30.0651C50.376 29.6391 50.3391 29.1431 50.3391 28.5785V28.3537C50.3391 27.8005 50.376 27.3108 50.4498 26.8843C50.5235 26.4583 50.6793 26.1038 50.9177 25.8213C51.156 25.5393 51.4986 25.3258 51.9471 25.1818C52.3951 25.0378 52.9993 24.9658 53.7594 24.9658H54.0317C54.3947 24.9658 54.7689 24.992 55.1548 25.0437C55.5401 25.0955 55.8949 25.2055 56.2182 25.3721C56.5414 25.5393 56.8079 25.7843 57.018 26.1068C57.2277 26.4297 57.3383 26.8735 57.35 27.4381H55.8017C55.8129 27.1614 55.7702 26.9514 55.6741 26.8069C55.5775 26.663 55.4498 26.5594 55.2911 26.4958C55.1319 26.4327 54.9451 26.4006 54.7296 26.4006C54.5141 26.4006 54.2928 26.4006 54.0661 26.4006H53.7599C53.3061 26.4006 52.9542 26.4209 52.7047 26.4613C52.4552 26.5017 52.2708 26.588 52.1519 26.7206C52.033 26.8533 51.9616 27.049 51.9393 27.3084C51.9165 27.5677 51.9053 27.9163 51.9053 28.3542V28.579C51.9053 29.0287 51.9165 29.3827 51.9393 29.6421C51.9621 29.9014 52.033 30.0977 52.1519 30.2298C52.2708 30.3624 52.4552 30.4487 52.7047 30.4891C52.9542 30.5296 53.3061 30.5498 53.7599 30.5498H54.0661C54.2365 30.5498 54.4204 30.5498 54.6189 30.5498C54.8174 30.5498 55.0043 30.5237 55.1805 30.4719C55.3562 30.4201 55.5008 30.3398 55.6144 30.2298C55.7275 30.1203 55.7847 29.9507 55.7847 29.72V29.5124H57.35C57.3383 30.076 57.233 30.5227 57.035 30.8511Z" fill="#0473B8"/>
<path d="M63.9007 31.9655V27.9549C63.9007 27.8282 63.8779 27.6842 63.8328 27.523C63.7872 27.3618 63.711 27.2089 63.6032 27.0649C63.4955 26.921 63.345 26.8002 63.1523 26.702C62.9591 26.6044 62.7208 26.5551 62.4374 26.5551H61.6885L60.0378 27.9382V31.966H58.4381V22.2852H60.0378V25.9329L61.093 25.0513H62.4374C62.9931 25.0513 63.4668 25.1494 63.858 25.3451C64.2492 25.5414 64.5666 25.7859 64.8108 26.0798C65.0544 26.3737 65.2301 26.6877 65.3383 27.022C65.4461 27.3563 65.5 27.6675 65.5 27.9554V31.966H63.9007V31.9655Z" fill="#0473B8"/>
</g>
<defs>
<clipPath id="clip0_1187_9073">
<rect width="65" height="32" fill="white" transform="translate(0.5)"/>
</clipPath>
</defs>
</svg>
